<?xml version="1.0" encoding="UTF-8"?>
<!DOCTYPE svg PUBLIC "-//W3C//DTD SVG 1.1//EN" "http://www.w3.org/Graphics/SVG/1.1/DTD/svg11.dtd">
<!-- Creator: CorelDRAW X7 -->
<svg xmlns="http://www.w3.org/2000/svg" xml:space="preserve" width="590.269mm" height="74.1678mm" version="1.1" style="shape-rendering:geometricPrecision; text-rendering:geometricPrecision; image-rendering:optimizeQuality; fill-rule:evenodd; clip-rule:evenodd"
viewBox="0 0 22551 2834"
 xmlns:xlink="http://www.w3.org/1999/xlink">
 <defs>
  <style type="text/css">
   <![CDATA[
    .fil0 {fill:#AAAAAA}
   ]]>
  </style>
 </defs>
 <g id="Layer_x0020_1">
  <metadata id="CorelCorpID_0Corel-Layer"/>
  <g id="_268213576">
   <path class="fil0" d="M1341 605l-714 714c-14,14 -14,37 0,51l488 489c14,14 38,14 52,0l714 -714 347 347 -935 935c-78,78 -207,78 -285,0l-949 -949c-79,-79 -79,-207 0,-285l935 -936 257 -257 90 605z"/>
   <path class="fil0" d="M1673 2229l714 -714c14,-14 14,-38 0,-52l-488 -488c-14,-14 -38,-14 -52,0l-714 714 -347 -347 935 -935c78,-79 207,-79 285,0l949 949c78,78 78,207 0,285l-935 935 -257 258 -90 -605z"/>
   <path class="fil0" d="M3611 924c-47,0 -90,-8 -129,-26 -40,-17 -75,-41 -104,-71 -30,-29 -54,-64 -71,-104 -17,-39 -26,-82 -26,-129 0,-46 9,-89 26,-129 17,-39 41,-74 71,-104 29,-29 64,-53 104,-70 39,-18 82,-26 129,-26l1505 0c33,0 61,11 84,34 23,23 35,52 35,85 0,33 -12,61 -35,84 -23,23 -51,35 -84,35l-1510 0c-25,0 -47,8 -66,26 -19,17 -29,39 -29,65 0,25 10,47 29,65 19,18 41,27 66,27l1371 0c46,0 90,9 130,26 41,18 76,41 106,71 29,30 53,65 70,105 18,41 26,84 26,130 0,47 -8,90 -26,129 -17,40 -41,75 -70,105 -30,29 -65,52 -106,69 -40,16 -84,25 -130,25l-1503 0c-33,0 -61,-12 -84,-35 -23,-23 -35,-51 -35,-84 0,-33 12,-61 35,-85 23,-23 51,-34 84,-34l1513 0c25,0 46,-9 64,-26 19,-18 28,-39 28,-64 0,-26 -9,-48 -28,-67 -18,-18 -39,-27 -64,-27l-1376 0zm2184 303c0,33 -11,61 -34,84 -24,23 -52,35 -85,35 -33,0 -61,-12 -84,-35 -23,-23 -35,-51 -35,-84l0 -843c0,-33 12,-62 35,-85 23,-23 51,-34 84,-34 33,0 61,11 85,34 23,23 34,52 34,85l0 843zm578 -303c-46,0 -89,-8 -129,-26 -40,-17 -74,-41 -104,-71 -30,-29 -53,-64 -71,-104 -17,-39 -26,-82 -26,-129 0,-46 9,-89 26,-129 18,-39 41,-74 71,-104 30,-29 64,-53 104,-70 40,-18 83,-26 129,-26l1505 0c33,0 61,11 84,34 24,23 35,52 35,85 0,33 -11,61 -35,84 -23,23 -51,35 -84,35l-1510 0c-25,0 -47,8 -66,26 -19,17 -28,39 -28,65 0,25 9,47 28,65 19,18 41,27 66,27l1371 0c47,0 90,9 130,26 41,18 76,41 106,71 30,30 53,65 71,105 17,41 26,84 26,130 0,47 -9,90 -26,129 -18,40 -41,75 -71,105 -30,29 -65,52 -106,69 -40,16 -83,25 -130,25l-1502 0c-33,0 -62,-12 -85,-35 -23,-23 -34,-51 -34,-84 0,-33 11,-61 34,-85 23,-23 52,-34 85,-34l1512 0c25,0 47,-9 65,-26 18,-18 27,-39 27,-64 0,-26 -9,-48 -27,-67 -18,-18 -40,-27 -65,-27l-1376 0zm2182 -238l573 0c86,0 170,-11 253,-33 82,-23 163,-52 242,-88 78,-37 153,-78 225,-124 72,-47 141,-94 207,-142 28,-23 57,-34 85,-34 33,0 61,11 84,34 23,23 35,52 35,85 0,23 -7,43 -20,60 -13,18 -29,33 -47,46 -43,33 -85,64 -124,93 -40,29 -80,56 -119,81 -40,25 -81,49 -123,72 -42,23 -87,46 -135,69 48,23 93,46 135,70 42,23 83,47 123,72 39,24 79,51 119,80 39,29 81,60 124,93 18,13 34,29 47,46 13,17 20,38 20,61 0,33 -12,61 -35,84 -23,23 -51,35 -84,35 -28,0 -57,-12 -85,-35 -67,-50 -137,-98 -209,-144 -72,-46 -147,-87 -225,-124 -77,-36 -158,-65 -240,-87 -83,-21 -167,-32 -253,-32l-573 0 0 303c0,33 -11,61 -35,84 -23,23 -50,35 -81,35 -34,0 -62,-12 -85,-35 -23,-23 -34,-51 -34,-84l0 -843c0,-33 11,-62 34,-85 23,-23 51,-34 82,-34 33,0 61,11 84,34 24,23 35,52 35,85l0 302zm2686 392c0,-43 14,-79 44,-109 30,-30 66,-45 109,-45 43,0 80,15 109,45 30,30 45,66 45,109 0,43 -15,79 -45,109 -29,30 -66,45 -109,45 -43,0 -79,-15 -109,-45 -30,-30 -44,-66 -44,-109zm-524 223c-24,30 -55,45 -91,45 -33,0 -62,-12 -85,-35 -23,-23 -34,-51 -34,-84 0,-30 8,-54 24,-72l603 -811c28,-38 65,-69 112,-93 46,-24 95,-36 148,-36 50,0 97,11 142,32 44,22 81,51 109,90l602 805c10,12 19,25 25,39 7,14 10,29 10,46 0,33 -12,61 -35,84 -23,23 -51,35 -84,35 -40,0 -71,-16 -94,-47l-578 -772c-12,-13 -26,-27 -43,-43 -18,-16 -35,-24 -54,-24 -18,0 -36,8 -53,24 -17,16 -31,30 -41,43l-583 774z"/>
   <path class="fil0" d="M3576 1956c-28,0 -50,6 -66,20 -16,13 -24,30 -24,52 0,22 10,39 29,52 20,13 66,28 137,46 71,17 126,44 166,79 39,35 59,86 59,153 0,68 -26,122 -76,164 -50,42 -117,63 -199,63 -119,0 -226,-44 -321,-132l100 -123c81,71 155,107 224,107 31,0 55,-7 73,-20 17,-13 26,-31 26,-54 0,-22 -9,-40 -28,-54 -19,-13 -56,-26 -111,-40 -87,-21 -151,-48 -191,-81 -41,-33 -61,-85 -61,-157 0,-71 26,-126 77,-164 51,-39 115,-58 191,-58 51,0 101,8 151,25 50,18 94,42 131,73l-85 123c-65,-50 -133,-74 -202,-74zm1458 241c0,-67 -22,-124 -65,-171 -42,-48 -95,-71 -158,-71 -62,0 -115,23 -158,71 -43,47 -65,104 -65,171 0,67 22,124 65,170 43,47 96,71 158,71 63,0 116,-24 158,-71 43,-46 65,-103 65,-170zm57 276c-76,74 -169,111 -280,111 -111,0 -205,-37 -281,-111 -75,-74 -113,-167 -113,-277 0,-110 38,-202 113,-276 76,-74 170,-111 281,-111 111,0 204,37 280,111 76,74 114,166 114,276 0,110 -38,203 -114,277zm1211 -647l0 147 -348 0 0 162 331 0 0 147 -331 0 0 294 -168 0 0 -750 516 0zm899 145l0 605 -167 0 0 -605 -213 0 0 -145 593 0 0 145 -213 0zm1009 286l134 -431 175 0 132 431 149 -431 181 0 -262 750 -124 0 -165 -522 -163 522 -124 0 -262 -750 181 0 148 431zm1795 319l-69 -162 -315 0 -70 162 -178 0 324 -750 162 0 325 750 -179 0zm-226 -527l-95 218 188 0 -93 -218zm1540 26c0,120 -47,198 -142,233l190 268 -207 0 -166 -239 -116 0 0 239 -167 0 0 -750 284 0c117,0 200,19 250,59 49,39 74,103 74,190zm-319 117c58,0 97,-9 117,-28 21,-19 32,-48 32,-89 0,-40 -11,-68 -33,-83 -21,-15 -59,-22 -112,-22l-126 0 0 222 122 0zm1472 -366l0 149 -373 0 0 155 336 0 0 142 -336 0 0 156 385 0 0 148 -553 0 0 -750 541 0z"/>
  </g>
  <path class="fil0" d="M14437 2261c301,0 578,-118 833,-356l284 403c-405,351 -819,526 -1241,526 -422,0 -733,-134 -935,-400 -202,-267 -248,-603 -139,-1009 109,-407 339,-746 690,-1017 351,-272 728,-408 1130,-408 449,0 780,171 991,513l-495 432c-129,-241 -338,-361 -625,-361 -230,0 -447,75 -650,225 -204,151 -340,353 -408,608 -68,255 -46,459 67,613 113,154 279,231 498,231zm4179 -1289c-118,439 -367,722 -749,850l431 980 -753 0 -373 -874 -423 0 -234 874 -612 0 734 -2739 1039 0c426,0 710,72 853,215 143,144 172,375 87,694zm-1279 427c209,0 361,-34 455,-102 94,-68 161,-175 200,-323 40,-148 28,-249 -36,-304 -64,-55 -193,-82 -389,-82l-459 0 -217 811 446 0zm4331 -321l-1142 1497 -364 0 -336 -1497 -462 1724 -611 0 734 -2739 827 0 302 1505 1112 -1505 823 0 -734 2739 -611 0 462 -1724z"/>
 </g>
</svg>
