<?xml version="1.0" encoding="UTF-8"?>
<!DOCTYPE svg PUBLIC "-//W3C//DTD SVG 1.1//EN" "http://www.w3.org/Graphics/SVG/1.1/DTD/svg11.dtd">
<!-- Creator: CorelDRAW X7 -->
<svg xmlns="http://www.w3.org/2000/svg" xml:space="preserve" width="326.761mm" height="74.1649mm" version="1.1" style="shape-rendering:geometricPrecision; text-rendering:geometricPrecision; image-rendering:optimizeQuality; fill-rule:evenodd; clip-rule:evenodd"
viewBox="0 0 6911 1569"
 xmlns:xlink="http://www.w3.org/1999/xlink">
 <defs>
  <style type="text/css">
   <![CDATA[
    .fil0 {fill:white}
   ]]>
  </style>
 </defs>
 <g id="Layer_x0020_1">
  <metadata id="CorelCorpID_0Corel-Layer"/>
  <g id="_416397368">
   <path class="fil0" d="M742 335l-395 395c-8,8 -8,21 0,29l270 270c8,8 21,8 29,0l395 -395 192 192 -517 517c-44,44 -115,44 -158,0l-525 -525c-44,-43 -44,-114 0,-158l517 -518 143 -142 49 335z"/>
   <path class="fil0" d="M926 1234l395 -396c8,-7 8,-20 0,-28l-270 -270c-8,-8 -21,-8 -28,0l-396 395 -192 -192 518 -518c43,-43 114,-43 157,0l526 526c43,43 43,114 0,157l-518 518 -142 143 -50 -335z"/>
   <path class="fil0" d="M1999 512c-26,0 -50,-5 -72,-15 -22,-9 -41,-23 -57,-39 -17,-16 -30,-36 -39,-58 -10,-22 -15,-45 -15,-71 0,-26 5,-49 15,-71 9,-22 22,-42 39,-58 16,-17 35,-30 57,-39 22,-10 46,-15 72,-15l833 0c18,0 34,7 47,20 12,12 19,28 19,46 0,19 -7,34 -19,47 -13,13 -29,19 -47,19l-836 0c-14,0 -26,5 -36,15 -11,9 -16,21 -16,36 0,14 5,26 16,36 10,10 22,15 36,15l759 0c26,0 50,5 72,14 23,10 42,23 59,39 16,17 29,36 39,59 9,22 14,46 14,72 0,25 -5,49 -14,71 -10,22 -23,41 -39,58 -17,16 -36,29 -59,38 -22,9 -46,14 -72,14l-832 0c-18,0 -34,-6 -46,-19 -13,-13 -20,-29 -20,-47 0,-18 7,-34 20,-47 12,-12 28,-19 46,-19l838 0c13,0 25,-5 35,-14 10,-10 15,-22 15,-35 0,-15 -5,-27 -15,-37 -10,-10 -22,-15 -35,-15l-762 0zm1209 167c0,18 -6,34 -19,47 -13,13 -28,19 -47,19 -18,0 -34,-6 -46,-19 -13,-13 -20,-29 -20,-47l0 -467c0,-18 7,-34 20,-46 12,-13 28,-20 46,-20 19,0 34,7 47,20 13,12 19,28 19,46l0 467zm320 -167c-26,0 -49,-5 -71,-15 -22,-9 -42,-23 -58,-39 -17,-16 -30,-36 -39,-58 -10,-22 -15,-45 -15,-71 0,-26 5,-49 15,-71 9,-22 22,-42 39,-58 16,-17 36,-30 58,-39 22,-10 45,-15 71,-15l833 0c18,0 34,7 47,20 13,12 19,28 19,46 0,19 -6,34 -19,47 -13,13 -29,19 -47,19l-836 0c-14,0 -26,5 -36,15 -11,9 -16,21 -16,36 0,14 5,26 16,36 10,10 22,15 36,15l759 0c26,0 50,5 72,14 23,10 42,23 59,39 16,17 29,36 39,59 9,22 14,46 14,72 0,25 -5,49 -14,71 -10,22 -23,41 -39,58 -17,16 -36,29 -59,38 -22,9 -46,14 -72,14l-832 0c-18,0 -33,-6 -46,-19 -13,-13 -19,-29 -19,-47 0,-18 6,-34 19,-47 13,-12 28,-19 46,-19l838 0c14,0 25,-5 35,-14 11,-10 16,-22 16,-35 0,-15 -5,-27 -16,-37 -10,-10 -21,-15 -35,-15l-762 0zm1208 -132l317 0c48,0 94,-6 140,-19 46,-12 90,-28 134,-48 43,-21 85,-43 125,-69 40,-26 78,-52 114,-78 16,-13 32,-20 47,-20 18,0 34,7 47,20 13,12 19,28 19,46 0,13 -4,24 -11,34 -7,10 -16,18 -26,25 -24,19 -47,36 -69,52 -22,16 -44,31 -66,44 -22,14 -44,27 -68,40 -23,13 -48,26 -74,39 26,12 51,25 74,38 24,13 46,26 68,40 22,14 44,29 66,45 22,16 45,33 69,51 10,7 19,16 26,25 7,10 11,21 11,34 0,18 -6,34 -19,47 -13,13 -29,19 -47,19 -15,0 -31,-6 -47,-19 -37,-28 -76,-54 -116,-80 -39,-26 -81,-48 -124,-69 -43,-20 -87,-36 -133,-48 -46,-11 -92,-17 -140,-17l-317 0 0 167c0,18 -6,34 -19,47 -13,13 -28,19 -46,19 -18,0 -33,-6 -46,-19 -13,-13 -19,-29 -19,-47l0 -467c0,-18 6,-34 19,-46 13,-13 28,-20 45,-20 18,0 34,7 47,20 13,12 19,28 19,46l0 168zm1487 217c0,-24 8,-44 24,-61 17,-16 37,-24 61,-24 23,0 44,8 60,24 17,17 25,37 25,61 0,23 -8,44 -25,60 -16,17 -37,25 -60,25 -24,0 -44,-8 -61,-25 -16,-16 -24,-37 -24,-60zm-290 123c-14,17 -31,25 -51,25 -18,0 -34,-6 -47,-19 -12,-13 -19,-29 -19,-47 0,-16 5,-30 14,-40l334 -449c15,-21 36,-38 61,-51 26,-13 53,-20 83,-20 27,0 53,6 78,18 25,12 45,28 60,49l334 446c5,7 10,14 14,22 3,7 5,16 5,25 0,18 -6,34 -19,47 -13,13 -28,19 -47,19 -22,0 -39,-9 -52,-26l-320 -427c-6,-7 -14,-15 -24,-24 -9,-9 -19,-13 -29,-13 -10,0 -20,4 -30,13 -9,9 -17,17 -22,24l-323 428z"/>
   <path class="fil0" d="M1980 1083c-16,0 -28,3 -37,11 -9,7 -13,17 -13,29 0,12 5,21 16,29 11,7 36,15 76,25 39,9 70,24 91,43 22,20 33,48 33,85 0,38 -14,68 -42,91 -28,23 -65,35 -110,35 -66,0 -125,-25 -178,-73l55 -68c45,39 87,59 125,59 17,0 30,-4 40,-11 10,-7 14,-17 14,-30 0,-12 -5,-22 -15,-30 -10,-7 -31,-14 -61,-22 -49,-11 -84,-26 -106,-45 -23,-18 -34,-47 -34,-87 0,-39 14,-69 43,-91 28,-21 63,-32 106,-32 27,0 55,5 83,14 28,10 52,23 72,41l-47 68c-36,-28 -73,-41 -111,-41zm807 133c0,-37 -12,-69 -36,-95 -24,-26 -53,-39 -88,-39 -34,0 -64,13 -87,39 -24,26 -36,58 -36,95 0,37 12,69 36,95 23,25 53,38 87,38 35,0 64,-13 88,-38 24,-26 36,-58 36,-95zm31 153c-42,41 -94,61 -155,61 -61,0 -113,-20 -155,-61 -42,-41 -63,-92 -63,-153 0,-61 21,-112 63,-153 42,-41 94,-62 155,-62 61,0 113,21 155,62 42,41 63,92 63,153 0,61 -21,112 -63,153zm671 -358l0 81 -193 0 0 90 183 0 0 81 -183 0 0 163 -93 0 0 -415 286 0zm497 80l0 335 -92 0 0 -335 -118 0 0 -80 328 0 0 80 -118 0zm559 159l74 -239 97 0 73 239 82 -239 101 0 -145 415 -69 0 -91 -289 -90 289 -69 0 -145 -415 100 0 82 239zm994 176l-39 -90 -174 0 -39 90 -98 0 179 -415 90 0 179 415 -98 0zm-126 -292l-52 121 104 0 -52 -121zm853 15c0,66 -26,109 -79,129l105 148 -114 0 -92 -132 -64 0 0 132 -93 0 0 -415 158 0c64,0 110,11 138,32 27,22 41,57 41,106zm-176 64c31,0 53,-5 64,-15 12,-10 18,-27 18,-49 0,-23 -6,-38 -18,-46 -12,-9 -33,-13 -63,-13l-69 0 0 123 68 0zm814 -202l0 82 -206 0 0 86 186 0 0 79 -186 0 0 86 213 0 0 82 -306 0 0 -415 299 0z"/>
  </g>
 </g>
</svg>
